<mxfile host="app.diagrams.net" modified="2024-02-26T22:58:37.713Z" agent="Mozilla/5.0 (Windows NT 10.0; Win64; x64) AppleWebKit/537.36 (KHTML, like Gecko) Chrome/121.0.0.0 Safari/537.36" etag="_u-bep6PrHYI5AeEtXnU" version="23.1.5" type="device">
  <diagram name="PÃ¡gina-1" id="iNeeuXbMr_8V0bboCuFO">
    <mxGraphModel dx="666" dy="494" grid="1" gridSize="10" guides="1" tooltips="1" connect="1" arrows="1" fold="1" page="1" pageScale="1" pageWidth="827" pageHeight="1169" math="0" shadow="0">
      <root>
        <mxCell id="0" />
        <mxCell id="1" parent="0" />
        <mxCell id="fu57weQBIEry1WZQB3Y1-12" value="AdministradorBiblioteca" style="shape=umlActor;verticalLabelPosition=bottom;verticalAlign=top;html=1;outlineConnect=0;" vertex="1" parent="1">
          <mxGeometry x="170" y="190" width="30" height="60" as="geometry" />
        </mxCell>
        <mxCell id="fu57weQBIEry1WZQB3Y1-13" value="UsuarioBiblioteca&lt;div&gt;&lt;br/&gt;&lt;/div&gt;" style="shape=umlActor;verticalLabelPosition=bottom;verticalAlign=top;html=1;outlineConnect=0;" vertex="1" parent="1">
          <mxGeometry x="170" y="360" width="30" height="60" as="geometry" />
        </mxCell>
        <mxCell id="fu57weQBIEry1WZQB3Y1-22" value="" style="swimlane;startSize=0;" vertex="1" parent="1">
          <mxGeometry x="400" y="120" width="170" height="520" as="geometry">
            <mxRectangle x="380" y="90" width="50" height="40" as="alternateBounds" />
          </mxGeometry>
        </mxCell>
        <mxCell id="fu57weQBIEry1WZQB3Y1-23" value="Biblioteca" style="text;html=1;align=center;verticalAlign=middle;resizable=0;points=[];autosize=1;strokeColor=none;fillColor=none;" vertex="1" parent="fu57weQBIEry1WZQB3Y1-22">
          <mxGeometry x="43" width="80" height="30" as="geometry" />
        </mxCell>
        <mxCell id="fu57weQBIEry1WZQB3Y1-25" value="&lt;font style=&quot;font-size: 10px;&quot;&gt;prestarLibros&lt;br&gt;&lt;/font&gt;" style="ellipse;whiteSpace=wrap;html=1;" vertex="1" parent="fu57weQBIEry1WZQB3Y1-22">
          <mxGeometry x="23" y="330" width="120" height="20" as="geometry" />
        </mxCell>
        <mxCell id="fu57weQBIEry1WZQB3Y1-26" value="&lt;font style=&quot;font-size: 10px;&quot;&gt;devolverLibros&lt;br&gt;&lt;/font&gt;" style="ellipse;whiteSpace=wrap;html=1;" vertex="1" parent="fu57weQBIEry1WZQB3Y1-22">
          <mxGeometry x="23" y="435" width="120" height="20" as="geometry" />
        </mxCell>
        <mxCell id="fu57weQBIEry1WZQB3Y1-27" value="&lt;font style=&quot;font-size: 10px;&quot;&gt;agregarUsuarios&lt;br&gt;&lt;/font&gt;" style="ellipse;whiteSpace=wrap;html=1;" vertex="1" parent="fu57weQBIEry1WZQB3Y1-22">
          <mxGeometry x="23" y="80" width="120" height="20" as="geometry" />
        </mxCell>
        <mxCell id="fu57weQBIEry1WZQB3Y1-29" value="&lt;font style=&quot;font-size: 10px;&quot;&gt;agregarLibros&lt;br&gt;&lt;/font&gt;" style="ellipse;whiteSpace=wrap;html=1;" vertex="1" parent="fu57weQBIEry1WZQB3Y1-22">
          <mxGeometry x="23" y="120" width="120" height="20" as="geometry" />
        </mxCell>
        <mxCell id="fu57weQBIEry1WZQB3Y1-37" value="&lt;font style=&quot;font-size: 10px;&quot;&gt;crearUsuario&lt;br&gt;&lt;/font&gt;" style="ellipse;whiteSpace=wrap;html=1;" vertex="1" parent="fu57weQBIEry1WZQB3Y1-22">
          <mxGeometry x="23" y="380" width="120" height="20" as="geometry" />
        </mxCell>
        <mxCell id="fu57weQBIEry1WZQB3Y1-38" style="edgeStyle=orthogonalEdgeStyle;rounded=0;orthogonalLoop=1;jettySize=auto;html=1;exitX=0.5;exitY=1;exitDx=0;exitDy=0;" edge="1" parent="fu57weQBIEry1WZQB3Y1-22" source="fu57weQBIEry1WZQB3Y1-29" target="fu57weQBIEry1WZQB3Y1-29">
          <mxGeometry relative="1" as="geometry" />
        </mxCell>
        <mxCell id="fu57weQBIEry1WZQB3Y1-48" value="&lt;font style=&quot;font-size: 10px;&quot;&gt;buscarLibros&lt;br&gt;&lt;/font&gt;" style="ellipse;whiteSpace=wrap;html=1;" vertex="1" parent="fu57weQBIEry1WZQB3Y1-22">
          <mxGeometry x="23" y="250" width="120" height="20" as="geometry" />
        </mxCell>
        <mxCell id="fu57weQBIEry1WZQB3Y1-61" value="&lt;font style=&quot;font-size: 10px;&quot;&gt;eliminarLibros&lt;br&gt;&lt;/font&gt;" style="ellipse;whiteSpace=wrap;html=1;" vertex="1" parent="fu57weQBIEry1WZQB3Y1-22">
          <mxGeometry x="23" y="160" width="120" height="20" as="geometry" />
        </mxCell>
        <mxCell id="fu57weQBIEry1WZQB3Y1-69" value="&lt;font style=&quot;font-size: 10px;&quot;&gt;eliminarUsuarios&lt;br&gt;&lt;/font&gt;" style="ellipse;whiteSpace=wrap;html=1;" vertex="1" parent="fu57weQBIEry1WZQB3Y1-22">
          <mxGeometry x="23" y="50" width="120" height="20" as="geometry" />
        </mxCell>
        <mxCell id="fu57weQBIEry1WZQB3Y1-71" value="&lt;font style=&quot;font-size: 10px;&quot;&gt;modificarLibros&lt;br&gt;&lt;/font&gt;" style="ellipse;whiteSpace=wrap;html=1;" vertex="1" parent="fu57weQBIEry1WZQB3Y1-22">
          <mxGeometry x="23" y="210" width="120" height="20" as="geometry" />
        </mxCell>
        <mxCell id="fu57weQBIEry1WZQB3Y1-73" value="&lt;font style=&quot;font-size: 10px;&quot;&gt;modificarUsuario&lt;br&gt;&lt;/font&gt;" style="ellipse;whiteSpace=wrap;html=1;" vertex="1" parent="fu57weQBIEry1WZQB3Y1-22">
          <mxGeometry x="23" y="280" width="120" height="20" as="geometry" />
        </mxCell>
        <mxCell id="fu57weQBIEry1WZQB3Y1-60" value="" style="endArrow=none;html=1;rounded=0;exitX=0.5;exitY=0.5;exitDx=0;exitDy=0;exitPerimeter=0;entryX=0;entryY=0.5;entryDx=0;entryDy=0;" edge="1" parent="1" source="fu57weQBIEry1WZQB3Y1-12" target="fu57weQBIEry1WZQB3Y1-27">
          <mxGeometry width="50" height="50" relative="1" as="geometry">
            <mxPoint x="195" y="230" as="sourcePoint" />
            <mxPoint x="433" y="210" as="targetPoint" />
          </mxGeometry>
        </mxCell>
        <mxCell id="fu57weQBIEry1WZQB3Y1-62" value="" style="endArrow=none;html=1;rounded=0;exitX=0.5;exitY=0.5;exitDx=0;exitDy=0;exitPerimeter=0;entryX=0;entryY=0.5;entryDx=0;entryDy=0;" edge="1" parent="1" source="fu57weQBIEry1WZQB3Y1-12" target="fu57weQBIEry1WZQB3Y1-61">
          <mxGeometry width="50" height="50" relative="1" as="geometry">
            <mxPoint x="185" y="310" as="sourcePoint" />
            <mxPoint x="423" y="330" as="targetPoint" />
          </mxGeometry>
        </mxCell>
        <mxCell id="fu57weQBIEry1WZQB3Y1-63" value="" style="endArrow=none;html=1;rounded=0;exitX=0.5;exitY=0.5;exitDx=0;exitDy=0;exitPerimeter=0;entryX=0;entryY=0.5;entryDx=0;entryDy=0;" edge="1" parent="1" source="fu57weQBIEry1WZQB3Y1-12" target="fu57weQBIEry1WZQB3Y1-29">
          <mxGeometry width="50" height="50" relative="1" as="geometry">
            <mxPoint x="195" y="240" as="sourcePoint" />
            <mxPoint x="433" y="260" as="targetPoint" />
          </mxGeometry>
        </mxCell>
        <mxCell id="fu57weQBIEry1WZQB3Y1-64" value="" style="endArrow=none;html=1;rounded=0;exitX=0.5;exitY=0.5;exitDx=0;exitDy=0;exitPerimeter=0;entryX=0;entryY=0.5;entryDx=0;entryDy=0;" edge="1" parent="1" source="fu57weQBIEry1WZQB3Y1-12" target="fu57weQBIEry1WZQB3Y1-48">
          <mxGeometry width="50" height="50" relative="1" as="geometry">
            <mxPoint x="162" y="330" as="sourcePoint" />
            <mxPoint x="400" y="350" as="targetPoint" />
          </mxGeometry>
        </mxCell>
        <mxCell id="fu57weQBIEry1WZQB3Y1-65" value="" style="endArrow=none;html=1;rounded=0;exitX=0.5;exitY=0.5;exitDx=0;exitDy=0;exitPerimeter=0;entryX=0;entryY=0.5;entryDx=0;entryDy=0;" edge="1" parent="1" source="fu57weQBIEry1WZQB3Y1-13" target="fu57weQBIEry1WZQB3Y1-25">
          <mxGeometry width="50" height="50" relative="1" as="geometry">
            <mxPoint x="220" y="410" as="sourcePoint" />
            <mxPoint x="458" y="430" as="targetPoint" />
          </mxGeometry>
        </mxCell>
        <mxCell id="fu57weQBIEry1WZQB3Y1-66" value="" style="endArrow=none;html=1;rounded=0;exitX=0.5;exitY=0.5;exitDx=0;exitDy=0;exitPerimeter=0;entryX=0;entryY=0.5;entryDx=0;entryDy=0;" edge="1" parent="1" source="fu57weQBIEry1WZQB3Y1-13" target="fu57weQBIEry1WZQB3Y1-48">
          <mxGeometry width="50" height="50" relative="1" as="geometry">
            <mxPoint x="220" y="360" as="sourcePoint" />
            <mxPoint x="420" y="360" as="targetPoint" />
          </mxGeometry>
        </mxCell>
        <mxCell id="fu57weQBIEry1WZQB3Y1-67" value="" style="endArrow=none;html=1;rounded=0;exitX=0.5;exitY=0.5;exitDx=0;exitDy=0;exitPerimeter=0;entryX=0;entryY=0.5;entryDx=0;entryDy=0;" edge="1" parent="1" source="fu57weQBIEry1WZQB3Y1-13" target="fu57weQBIEry1WZQB3Y1-37">
          <mxGeometry width="50" height="50" relative="1" as="geometry">
            <mxPoint x="205" y="410" as="sourcePoint" />
            <mxPoint x="443" y="520" as="targetPoint" />
          </mxGeometry>
        </mxCell>
        <mxCell id="fu57weQBIEry1WZQB3Y1-68" value="" style="endArrow=none;html=1;rounded=0;exitX=0.5;exitY=0.5;exitDx=0;exitDy=0;exitPerimeter=0;entryX=0;entryY=0.5;entryDx=0;entryDy=0;" edge="1" parent="1" source="fu57weQBIEry1WZQB3Y1-13" target="fu57weQBIEry1WZQB3Y1-26">
          <mxGeometry width="50" height="50" relative="1" as="geometry">
            <mxPoint x="215" y="420" as="sourcePoint" />
            <mxPoint x="453" y="530" as="targetPoint" />
          </mxGeometry>
        </mxCell>
        <mxCell id="fu57weQBIEry1WZQB3Y1-70" value="" style="endArrow=none;html=1;rounded=0;exitX=0.5;exitY=0.5;exitDx=0;exitDy=0;exitPerimeter=0;entryX=0;entryY=0.5;entryDx=0;entryDy=0;" edge="1" parent="1" source="fu57weQBIEry1WZQB3Y1-12" target="fu57weQBIEry1WZQB3Y1-69">
          <mxGeometry width="50" height="50" relative="1" as="geometry">
            <mxPoint x="195" y="190" as="sourcePoint" />
            <mxPoint x="433" y="190" as="targetPoint" />
          </mxGeometry>
        </mxCell>
        <mxCell id="fu57weQBIEry1WZQB3Y1-72" value="" style="endArrow=none;html=1;rounded=0;exitX=0.5;exitY=0.5;exitDx=0;exitDy=0;exitPerimeter=0;entryX=0;entryY=0.5;entryDx=0;entryDy=0;" edge="1" parent="1" source="fu57weQBIEry1WZQB3Y1-12" target="fu57weQBIEry1WZQB3Y1-71">
          <mxGeometry width="50" height="50" relative="1" as="geometry">
            <mxPoint x="200" y="220" as="sourcePoint" />
            <mxPoint x="438" y="380" as="targetPoint" />
          </mxGeometry>
        </mxCell>
        <mxCell id="fu57weQBIEry1WZQB3Y1-74" value="" style="endArrow=none;html=1;rounded=0;exitX=0.5;exitY=0.5;exitDx=0;exitDy=0;exitPerimeter=0;entryX=0;entryY=0.5;entryDx=0;entryDy=0;" edge="1" parent="1" source="fu57weQBIEry1WZQB3Y1-13" target="fu57weQBIEry1WZQB3Y1-73">
          <mxGeometry width="50" height="50" relative="1" as="geometry">
            <mxPoint x="195" y="400" as="sourcePoint" />
            <mxPoint x="433" y="390" as="targetPoint" />
          </mxGeometry>
        </mxCell>
        <mxCell id="fu57weQBIEry1WZQB3Y1-75" value="" style="endArrow=none;html=1;rounded=0;exitX=0.5;exitY=0.5;exitDx=0;exitDy=0;exitPerimeter=0;entryX=0;entryY=0.5;entryDx=0;entryDy=0;" edge="1" parent="1" source="fu57weQBIEry1WZQB3Y1-12" target="fu57weQBIEry1WZQB3Y1-73">
          <mxGeometry width="50" height="50" relative="1" as="geometry">
            <mxPoint x="195" y="230" as="sourcePoint" />
            <mxPoint x="433" y="390" as="targetPoint" />
          </mxGeometry>
        </mxCell>
      </root>
    </mxGraphModel>
  </diagram>
</mxfile>
